<svg id="my-svg" width="100%" xmlns="http://www.w3.org/2000/svg" xmlns:xlink="http://www.w3.org/1999/xlink" class="erDiagram" style="max-width: 672.656px; background-color: white;" viewBox="0 0 672.65625 1073" role="graphics-document document" aria-roledescription="er"><style>#my-svg{font-family:"trebuchet ms",verdana,arial,sans-serif;font-size:16px;fill:#000000;}@keyframes edge-animation-frame{from{stroke-dashoffset:0;}}@keyframes dash{to{stroke-dashoffset:0;}}#my-svg .edge-animation-slow{stroke-dasharray:9,5!important;stroke-dashoffset:900;animation:dash 50s linear infinite;stroke-linecap:round;}#my-svg .edge-animation-fast{stroke-dasharray:9,5!important;stroke-dashoffset:900;animation:dash 20s linear infinite;stroke-linecap:round;}#my-svg .error-icon{fill:#552222;}#my-svg .error-text{fill:#552222;stroke:#552222;}#my-svg .edge-thickness-normal{stroke-width:1px;}#my-svg .edge-thickness-thick{stroke-width:3.5px;}#my-svg .edge-pattern-solid{stroke-dasharray:0;}#my-svg .edge-thickness-invisible{stroke-width:0;fill:none;}#my-svg .edge-pattern-dashed{stroke-dasharray:3;}#my-svg .edge-pattern-dotted{stroke-dasharray:2;}#my-svg .marker{fill:#000000;stroke:#000000;}#my-svg .marker.cross{stroke:#000000;}#my-svg svg{font-family:"trebuchet ms",verdana,arial,sans-serif;font-size:16px;}#my-svg p{margin:0;}#my-svg .entityBox{fill:#cde498;stroke:#13540c;}#my-svg .relationshipLabelBox{fill:hsl(78.1578947368, 58.4615384615%, 84.5098039216%);opacity:0.7;background-color:hsl(78.1578947368, 58.4615384615%, 84.5098039216%);}#my-svg .relationshipLabelBox rect{opacity:0.5;}#my-svg .labelBkg{background-color:rgba(224.6153846155, 238.5923076923, 192.4076923078, 0.5);}#my-svg .edgeLabel{background-color:#e8e8e8;}#my-svg .edgeLabel .label rect{fill:#e8e8e8;}#my-svg .edgeLabel .label text{fill:#000000;}#my-svg .edgeLabel .label{fill:#13540c;font-size:14px;}#my-svg .label{font-family:"trebuchet ms",verdana,arial,sans-serif;color:#000000;}#my-svg .edge-pattern-dashed{stroke-dasharray:8,8;}#my-svg .node rect,#my-svg .node circle,#my-svg .node ellipse,#my-svg .node polygon{fill:#cde498;stroke:#13540c;stroke-width:1px;}#my-svg .relationshipLine{stroke:#000000;stroke-width:1px;fill:none;}#my-svg .marker{fill:none!important;stroke:#000000!important;stroke-width:1;}#my-svg [data-look=neo].labelBkg{background-color:rgba(224.6153846155, 238.5923076923, 192.4076923078, 0.5);}#my-svg .node .neo-node{stroke:#13540c;}#my-svg [data-look="neo"].node rect,#my-svg [data-look="neo"].cluster rect,#my-svg [data-look="neo"].node polygon{stroke:url(#my-svg-gradient);filter:drop-shadow( 1px 2px 2px rgba(185,185,185,0.5));}#my-svg [data-look="neo"].node path{stroke:url(#my-svg-gradient);stroke-width:1px;}#my-svg [data-look="neo"].node .outer-path{filter:drop-shadow( 1px 2px 2px rgba(185,185,185,0.5));}#my-svg [data-look="neo"].node .neo-line path{stroke:#13540c;filter:none;}#my-svg [data-look="neo"].node circle{stroke:url(#my-svg-gradient);filter:drop-shadow( 1px 2px 2px rgba(185,185,185,0.5));}#my-svg [data-look="neo"].node circle .state-start{fill:#000000;}#my-svg [data-look="neo"].icon-shape .icon{fill:url(#my-svg-gradient);filter:drop-shadow( 1px 2px 2px rgba(185,185,185,0.5));}#my-svg [data-look="neo"].icon-shape .icon-neo path{stroke:url(#my-svg-gradient);filter:drop-shadow( 1px 2px 2px rgba(185,185,185,0.5));}#my-svg :root{--mermaid-font-family:"trebuchet ms",verdana,arial,sans-serif;}</style><g><defs><marker id="my-svg_er-onlyOneStart" class="marker onlyOne er" refX="0" refY="9" markerWidth="18" markerHeight="18" orient="auto"><path d="M9,0 L9,18 M15,0 L15,18"/></marker></defs><defs><marker id="my-svg_er-onlyOneEnd" class="marker onlyOne er" refX="18" refY="9" markerWidth="18" markerHeight="18" orient="auto"><path d="M3,0 L3,18 M9,0 L9,18"/></marker></defs><defs><marker id="my-svg_er-zeroOrOneStart" class="marker zeroOrOne er" refX="0" refY="9" markerWidth="30" markerHeight="18" orient="auto"><circle fill="white" cx="21" cy="9" r="6"/><path d="M9,0 L9,18"/></marker></defs><defs><marker id="my-svg_er-zeroOrOneEnd" class="marker zeroOrOne er" refX="30" refY="9" markerWidth="30" markerHeight="18" orient="auto"><circle fill="white" cx="9" cy="9" r="6"/><path d="M21,0 L21,18"/></marker></defs><defs><marker id="my-svg_er-oneOrMoreStart" class="marker oneOrMore er" refX="18" refY="18" markerWidth="45" markerHeight="36" orient="auto"><path d="M0,18 Q 18,0 36,18 Q 18,36 0,18 M42,9 L42,27"/></marker></defs><defs><marker id="my-svg_er-oneOrMoreEnd" class="marker oneOrMore er" refX="27" refY="18" markerWidth="45" markerHeight="36" orient="auto"><path d="M3,9 L3,27 M9,18 Q27,0 45,18 Q27,36 9,18"/></marker></defs><defs><marker id="my-svg_er-zeroOrMoreStart" class="marker zeroOrMore er" refX="18" refY="18" markerWidth="57" markerHeight="36" orient="auto"><circle fill="white" cx="48" cy="18" r="6"/><path d="M0,18 Q18,0 36,18 Q18,36 0,18"/></marker></defs><defs><marker id="my-svg_er-zeroOrMoreEnd" class="marker zeroOrMore er" refX="39" refY="18" markerWidth="57" markerHeight="36" orient="auto"><circle fill="white" cx="9" cy="18" r="6"/><path d="M21,18 Q39,0 57,18 Q39,36 21,18"/></marker></defs><g class="root"><g class="clusters"/><g class="edgePaths"><path d="M131.063,307.25L131.063,329.917C131.063,352.583,131.063,397.917,131.063,429C131.063,460.083,131.063,476.917,131.063,485.333L131.063,493.75" id="my-svg-id_entity-Movimentacao-1_entity-Produto-2_0" class="edge-thickness-normal edge-pattern-solid relationshipLine" style="undefined;;;undefined" data-edge="true" data-et="edge" data-id="id_entity-Movimentacao-1_entity-Produto-2_0" data-points="W3sieCI6MTMxLjA2MjUsInkiOjMwNy4yNX0seyJ4IjoxMzEuMDYyNSwieSI6NDQzLjI1fSx7IngiOjEzMS4wNjI1LCJ5Ijo0OTMuNzV9XQ==" data-look="classic" marker-start="url(#my-svg_er-zeroOrMoreStart)" marker-end="url(#my-svg_er-onlyOneEnd)"/><path d="M131.063,750.25L131.063,758.667C131.063,767.083,131.063,783.917,131.063,800.75C131.063,817.583,131.063,834.417,131.063,842.833L131.063,851.25" id="my-svg-id_entity-Produto-2_entity-Categoria-0_1" class="edge-thickness-normal edge-pattern-solid relationshipLine" style="undefined;;;undefined" data-edge="true" data-et="edge" data-id="id_entity-Produto-2_entity-Categoria-0_1" data-points="W3sieCI6MTMxLjA2MjUsInkiOjc1MC4yNX0seyJ4IjoxMzEuMDYyNSwieSI6ODAwLjc1fSx7IngiOjEzMS4wNjI1LCJ5Ijo4NTEuMjV9XQ==" data-look="classic" marker-start="url(#my-svg_er-zeroOrMoreStart)" marker-end="url(#my-svg_er-zeroOrOneEnd)"/></g><g class="edgeLabels"><g class="edgeLabel" transform="translate(131.0625, 443.25)"><g class="label" data-id="id_entity-Movimentacao-1_entity-Produto-2_0" transform="translate(-24.640625, -10.5)"><foreignObject width="49.28125" height="21"><div xmlns="http://www.w3.org/1999/xhtml" class="labelBkg" style="display: table-cell; white-space: nowrap; line-height: 1.5; max-width: 200px; text-align: center;"><span class="edgeLabel"><p>produto</p></span></div></foreignObject></g></g><g class="edgeLabel" transform="translate(131.0625, 800.75)"><g class="label" data-id="id_entity-Produto-2_entity-Categoria-0_1" transform="translate(-29.40625, -10.5)"><foreignObject width="58.8125" height="21"><div xmlns="http://www.w3.org/1999/xhtml" class="labelBkg" style="display: table-cell; white-space: nowrap; line-height: 1.5; max-width: 200px; text-align: center;"><span class="edgeLabel"><p>categoria</p></span></div></foreignObject></g></g></g><g class="nodes"><g class="node default" id="my-svg-entity-Categoria-0" data-look="classic" transform="translate(131.0625, 958.125)"><g class="outer-path" style=""><path d="M-120.234375 -106.875 L120.234375 -106.875 L120.234375 106.875 L-120.234375 106.875" stroke="none" stroke-width="0" fill="#cde498"/><path d="M-120.234375 -106.875 C-63.26239215889002 -106.875, -6.290409317780046 -106.875, 120.234375 -106.875 M-120.234375 -106.875 C-47.801610946727166 -106.875, 24.631153106545668 -106.875, 120.234375 -106.875 M120.234375 -106.875 C120.234375 -50.625313730356964, 120.234375 5.624372539286071, 120.234375 106.875 M120.234375 -106.875 C120.234375 -51.01110611449929, 120.234375 4.852787771001417, 120.234375 106.875 M120.234375 106.875 C51.48093281565387 106.875, -17.272509368692255 106.875, -120.234375 106.875 M120.234375 106.875 C52.19862665771592 106.875, -15.83712168456816 106.875, -120.234375 106.875 M-120.234375 106.875 C-120.234375 24.505639982319877, -120.234375 -57.863720035360245, -120.234375 -106.875 M-120.234375 106.875 C-120.234375 53.426530414861325, -120.234375 -0.021939170277349263, -120.234375 -106.875" stroke="#13540c" stroke-width="1.3" fill="none" stroke-dasharray="0 0"/></g><g style="" class="row-rect-odd"><path d="M-120.234375 -64.125 L120.234375 -64.125 L120.234375 -21.375 L-120.234375 -21.375" stroke="none" stroke-width="0" fill="hsl(78.1578947368, 58.4615384615%, 100%)"/><path d="M-120.234375 -64.125 C-49.00027704286842 -64.125, 22.233820914263163 -64.125, 120.234375 -64.125 M-120.234375 -64.125 C-26.107740510409954 -64.125, 68.01889397918009 -64.125, 120.234375 -64.125 M120.234375 -64.125 C120.234375 -51.05269167132556, 120.234375 -37.980383342651116, 120.234375 -21.375 M120.234375 -64.125 C120.234375 -52.95427485115801, 120.234375 -41.78354970231602, 120.234375 -21.375 M120.234375 -21.375 C65.28232209786349 -21.375, 10.33026919572697 -21.375, -120.234375 -21.375 M120.234375 -21.375 C49.01555422381257 -21.375, -22.203266552374856 -21.375, -120.234375 -21.375 M-120.234375 -21.375 C-120.234375 -30.523847983180474, -120.234375 -39.67269596636095, -120.234375 -64.125 M-120.234375 -21.375 C-120.234375 -35.37080277259983, -120.234375 -49.36660554519966, -120.234375 -64.125" stroke="#13540c" stroke-width="1.3" fill="none" stroke-dasharray="0 0"/></g><g style="" class="row-rect-even"><path d="M-120.234375 -21.375 L120.234375 -21.375 L120.234375 21.375 L-120.234375 21.375" stroke="none" stroke-width="0" fill="hsl(78.1578947368, 58.4615384615%, 94.5098039216%)"/><path d="M-120.234375 -21.375 C-35.382036172320014 -21.375, 49.47030265535997 -21.375, 120.234375 -21.375 M-120.234375 -21.375 C-63.886890256316356 -21.375, -7.539405512632712 -21.375, 120.234375 -21.375 M120.234375 -21.375 C120.234375 -11.300965035816068, 120.234375 -1.226930071632136, 120.234375 21.375 M120.234375 -21.375 C120.234375 -4.558996820810268, 120.234375 12.257006358379464, 120.234375 21.375 M120.234375 21.375 C35.47183089913784 21.375, -49.290713201724316 21.375, -120.234375 21.375 M120.234375 21.375 C67.33417415287957 21.375, 14.433973305759139 21.375, -120.234375 21.375 M-120.234375 21.375 C-120.234375 12.228739891620902, -120.234375 3.082479783241805, -120.234375 -21.375 M-120.234375 21.375 C-120.234375 7.015631186386605, -120.234375 -7.3437376272267905, -120.234375 -21.375" stroke="#13540c" stroke-width="1.3" fill="none" stroke-dasharray="0 0"/></g><g style="" class="row-rect-odd"><path d="M-120.234375 21.375 L120.234375 21.375 L120.234375 64.125 L-120.234375 64.125" stroke="none" stroke-width="0" fill="hsl(78.1578947368, 58.4615384615%, 100%)"/><path d="M-120.234375 21.375 C-62.58373244449764 21.375, -4.9330898889952834 21.375, 120.234375 21.375 M-120.234375 21.375 C-49.55078544029075 21.375, 21.132804119418495 21.375, 120.234375 21.375 M120.234375 21.375 C120.234375 34.60024299285738, 120.234375 47.825485985714764, 120.234375 64.125 M120.234375 21.375 C120.234375 37.53544417933483, 120.234375 53.69588835866967, 120.234375 64.125 M120.234375 64.125 C65.60479420000331 64.125, 10.97521340000661 64.125, -120.234375 64.125 M120.234375 64.125 C67.50507515894927 64.125, 14.775775317898521 64.125, -120.234375 64.125 M-120.234375 64.125 C-120.234375 49.21615415816432, -120.234375 34.307308316328644, -120.234375 21.375 M-120.234375 64.125 C-120.234375 48.38042251161343, -120.234375 32.635845023226864, -120.234375 21.375" stroke="#13540c" stroke-width="1.3" fill="none" stroke-dasharray="0 0"/></g><g style="" class="row-rect-even"><path d="M-120.234375 64.125 L120.234375 64.125 L120.234375 106.875 L-120.234375 106.875" stroke="none" stroke-width="0" fill="hsl(78.1578947368, 58.4615384615%, 94.5098039216%)"/><path d="M-120.234375 64.125 C-41.96005246563354 64.125, 36.314270068732924 64.125, 120.234375 64.125 M-120.234375 64.125 C-56.29833444828568 64.125, 7.637706103428641 64.125, 120.234375 64.125 M120.234375 64.125 C120.234375 81.18781539046147, 120.234375 98.25063078092293, 120.234375 106.875 M120.234375 64.125 C120.234375 72.7027168609103, 120.234375 81.28043372182059, 120.234375 106.875 M120.234375 106.875 C59.55481839367545 106.875, -1.1247382126491061 106.875, -120.234375 106.875 M120.234375 106.875 C25.08743768152098 106.875, -70.05949963695804 106.875, -120.234375 106.875 M-120.234375 106.875 C-120.234375 93.09526928968322, -120.234375 79.31553857936643, -120.234375 64.125 M-120.234375 106.875 C-120.234375 89.95844664702551, -120.234375 73.04189329405102, -120.234375 64.125" stroke="#13540c" stroke-width="1.3" fill="none" stroke-dasharray="0 0"/></g><g class="label name" transform="translate(-34.4296875, -97.5)" style=""><foreignObject width="68.859375" height="24"><div xmlns="http://www.w3.org/1999/xhtml" style="display: table-cell; white-space: nowrap; line-height: 1.5; max-width: 163px; text-align: start;"><span class="nodeLabel"><p>Categoria</p></span></div></foreignObject></g><g class="label attribute-type" transform="translate(-107.734375, -54.75)" style=""><foreignObject width="19.546875" height="24"><div xmlns="http://www.w3.org/1999/xhtml" style="display: table-cell; white-space: nowrap; line-height: 1.5; max-width: 118px; text-align: start;"><span class="nodeLabel"><p>Int</p></span></div></foreignObject></g><g class="label attribute-name" transform="translate(-14.25, -54.75)" style=""><foreignObject width="13.484375" height="24"><div xmlns="http://www.w3.org/1999/xhtml" style="display: table-cell; white-space: nowrap; line-height: 1.5; max-width: 113px; text-align: start;"><span class="nodeLabel"><p>id</p></span></div></foreignObject></g><g class="label attribute-keys" transform="translate(85.765625, -54.75)" style=""><foreignObject width="0" height="0"><div xmlns="http://www.w3.org/1999/xhtml" style="display: table-cell; white-space: nowrap; line-height: 1.5; max-width: 100px; text-align: start;"><span class="nodeLabel"></span></div></foreignObject></g><g class="label attribute-comment" transform="translate(85.765625, -54.75)" style=""><foreignObject width="21.96875" height="24"><div xmlns="http://www.w3.org/1999/xhtml" style="display: table-cell; white-space: nowrap; line-height: 1.5; max-width: 122px; text-align: start;"><span class="nodeLabel"><p>🗝️</p></span></div></foreignObject></g><g class="label attribute-type" transform="translate(-107.734375, -12)" style=""><foreignObject width="41.59375" height="24"><div xmlns="http://www.w3.org/1999/xhtml" style="display: table-cell; white-space: nowrap; line-height: 1.5; max-width: 139px; text-align: start;"><span class="nodeLabel"><p>String</p></span></div></foreignObject></g><g class="label attribute-name" transform="translate(-14.25, -12)" style=""><foreignObject width="39.34375" height="24"><div xmlns="http://www.w3.org/1999/xhtml" style="display: table-cell; white-space: nowrap; line-height: 1.5; max-width: 137px; text-align: start;"><span class="nodeLabel"><p>nome</p></span></div></foreignObject></g><g class="label attribute-keys" transform="translate(85.765625, -12)" style=""><foreignObject width="0" height="0"><div xmlns="http://www.w3.org/1999/xhtml" style="display: table-cell; white-space: nowrap; line-height: 1.5; max-width: 100px; text-align: start;"><span class="nodeLabel"></span></div></foreignObject></g><g class="label attribute-comment" transform="translate(85.765625, -12)" style=""><foreignObject width="0" height="0"><div xmlns="http://www.w3.org/1999/xhtml" style="display: table-cell; white-space: nowrap; line-height: 1.5; max-width: 100px; text-align: start;"><span class="nodeLabel"></span></div></foreignObject></g><g class="label attribute-type" transform="translate(-107.734375, 30.75)" style=""><foreignObject width="41.59375" height="24"><div xmlns="http://www.w3.org/1999/xhtml" style="display: table-cell; white-space: nowrap; line-height: 1.5; max-width: 139px; text-align: start;"><span class="nodeLabel"><p>String</p></span></div></foreignObject></g><g class="label attribute-name" transform="translate(-14.25, 30.75)" style=""><foreignObject width="67.734375" height="24"><div xmlns="http://www.w3.org/1999/xhtml" style="display: table-cell; white-space: nowrap; line-height: 1.5; max-width: 160px; text-align: start;"><span class="nodeLabel"><p>descricao</p></span></div></foreignObject></g><g class="label attribute-keys" transform="translate(85.765625, 30.75)" style=""><foreignObject width="0" height="0"><div xmlns="http://www.w3.org/1999/xhtml" style="display: table-cell; white-space: nowrap; line-height: 1.5; max-width: 100px; text-align: start;"><span class="nodeLabel"></span></div></foreignObject></g><g class="label attribute-comment" transform="translate(85.765625, 30.75)" style=""><foreignObject width="21.96875" height="24"><div xmlns="http://www.w3.org/1999/xhtml" style="display: table-cell; white-space: nowrap; line-height: 1.5; max-width: 122px; text-align: start;"><span class="nodeLabel"><p>❓</p></span></div></foreignObject></g><g class="label attribute-type" transform="translate(-107.734375, 73.5)" style=""><foreignObject width="68.484375" height="24"><div xmlns="http://www.w3.org/1999/xhtml" style="display: table-cell; white-space: nowrap; line-height: 1.5; max-width: 164px; text-align: start;"><span class="nodeLabel"><p>DateTime</p></span></div></foreignObject></g><g class="label attribute-name" transform="translate(-14.25, 73.5)" style=""><foreignObject width="75.015625" height="24"><div xmlns="http://www.w3.org/1999/xhtml" style="display: table-cell; white-space: nowrap; line-height: 1.5; max-width: 168px; text-align: start;"><span class="nodeLabel"><p>criado_em</p></span></div></foreignObject></g><g class="label attribute-keys" transform="translate(85.765625, 73.5)" style=""><foreignObject width="0" height="0"><div xmlns="http://www.w3.org/1999/xhtml" style="display: table-cell; white-space: nowrap; line-height: 1.5; max-width: 100px; text-align: start;"><span class="nodeLabel"></span></div></foreignObject></g><g class="label attribute-comment" transform="translate(85.765625, 73.5)" style=""><foreignObject width="0" height="0"><div xmlns="http://www.w3.org/1999/xhtml" style="display: table-cell; white-space: nowrap; line-height: 1.5; max-width: 100px; text-align: start;"><span class="nodeLabel"></span></div></foreignObject></g><g class="divider"><path d="M-120.234375 -64.12505 L-120.234375 -64.12495 L120.234375 -64.12495 L120.234375 -64.12505" stroke="none" stroke-width="0" fill="#cde498" fill-rule="evenodd"/><path d="M-120.234375 -64.12505 C-120.234375 -64.12502117872681, -120.234375 -64.1249923574536, -120.234375 -64.12495 M-120.234375 -64.12505 C-120.234375 -64.12502742148992, -120.234375 -64.12500484297982, -120.234375 -64.12495 M-120.234375 -64.12495 C-31.412205230000296 -64.12495, 57.40996453999941 -64.12495, 120.234375 -64.12495 M-120.234375 -64.12495 C-28.36268420223395 -64.12495, 63.5090065955321 -64.12495, 120.234375 -64.12495 M120.234375 -64.12495 C120.234375 -64.12497408737508, 120.234375 -64.12499817475016, 120.234375 -64.12505 M120.234375 -64.12495 C120.234375 -64.12497686946774, 120.234375 -64.12500373893549, 120.234375 -64.12505 M120.234375 -64.12505 C72.0053874089971 -64.12505, 23.77639981799419 -64.12505, -120.234375 -64.12505 M120.234375 -64.12505 C49.2285104217911 -64.12505, -21.7773541564178 -64.12505, -120.234375 -64.12505" stroke="#13540c" stroke-width="1.3" fill="none" stroke-dasharray="0 0"/></g><g class="divider"><path d="M-26.75005 -64.125 L-26.74995 -64.125 L-26.74995 106.875 L-26.75005 106.875" stroke="none" stroke-width="0" fill="#cde498" fill-rule="evenodd"/><path d="M-26.75005 -64.125 C-26.75001528341869 -64.125, -26.749980566837376 -64.125, -26.74995 -64.125 M-26.75005 -64.125 C-26.7500263550187 -64.125, -26.7500027100374 -64.125, -26.74995 -64.125 M-26.74995 -64.125 C-26.74995 -7.267426778720534, -26.74995 49.59014644255893, -26.74995 106.875 M-26.74995 -64.125 C-26.74995 -11.785066874740146, -26.74995 40.55486625051971, -26.74995 106.875 M-26.74995 106.875 C-26.74997799785366 106.875, -26.75000599570732 106.875, -26.75005 106.875 M-26.74995 106.875 C-26.749987659861368 106.875, -26.750025319722738 106.875, -26.75005 106.875 M-26.75005 106.875 C-26.75005 55.29864807680975, -26.75005 3.722296153619496, -26.75005 -64.125 M-26.75005 106.875 C-26.75005 57.870023086023075, -26.75005 8.86504617204615, -26.75005 -64.125" stroke="#13540c" stroke-width="1.3" fill="none" stroke-dasharray="0 0"/></g><g class="divider"><path d="M73.265575 -64.125 L73.265675 -64.125 L73.265675 106.875 L73.265575 106.875" stroke="none" stroke-width="0" fill="#cde498" fill-rule="evenodd"/><path d="M73.265575 -64.125 C73.26560353023302 -64.125, 73.26563206046605 -64.125, 73.265675 -64.125 M73.265575 -64.125 C73.26561195043236 -64.125, 73.26564890086473 -64.125, 73.265675 -64.125 M73.265675 -64.125 C73.265675 -28.093282920066578, 73.265675 7.938434159866844, 73.265675 106.875 M73.265675 -64.125 C73.265675 -26.244012311672677, 73.265675 11.636975376654647, 73.265675 106.875 M73.265675 106.875 C73.26564724653717 106.875, 73.26561949307433 106.875, 73.265575 106.875 M73.265675 106.875 C73.26564385698468 106.875, 73.26561271396938 106.875, 73.265575 106.875 M73.265575 106.875 C73.265575 50.61779564061647, 73.265575 -5.639408718767058, 73.265575 -64.125 M73.265575 106.875 C73.265575 40.106080686583056, 73.265575 -26.66283862683389, 73.265575 -64.125" stroke="#13540c" stroke-width="1.3" fill="none" stroke-dasharray="0 0"/></g><g class="divider"><path d="M-120.234375 -64.12505 L-120.234375 -64.12495 L120.234375 -64.12495 L120.234375 -64.12505" stroke="none" stroke-width="0" fill="#cde498" fill-rule="evenodd"/><path d="M-120.234375 -64.12505 C-120.234375 -64.12501628558798, -120.234375 -64.12498257117595, -120.234375 -64.12495 M-120.234375 -64.12505 C-120.234375 -64.12502077396057, -120.234375 -64.12499154792113, -120.234375 -64.12495 M-120.234375 -64.12495 C-52.588432117259316 -64.12495, 15.057510765481368 -64.12495, 120.234375 -64.12495 M-120.234375 -64.12495 C-65.57040060119127 -64.12495, -10.90642620238252 -64.12495, 120.234375 -64.12495 M120.234375 -64.12495 C120.234375 -64.12497505645338, 120.234375 -64.12500011290675, 120.234375 -64.12505 M120.234375 -64.12495 C120.234375 -64.12498030749214, 120.234375 -64.12501061498428, 120.234375 -64.12505 M120.234375 -64.12505 C42.058267829946644 -64.12505, -36.11783934010671 -64.12505, -120.234375 -64.12505 M120.234375 -64.12505 C43.60914717714755 -64.12505, -33.0160806457049 -64.12505, -120.234375 -64.12505" stroke="#13540c" stroke-width="1.3" fill="none" stroke-dasharray="0 0"/></g></g><g class="node default" id="my-svg-entity-Movimentacao-1" data-look="classic" transform="translate(131.0625, 200.375)"><g class="outer-path" style=""><path d="M-123.0625 -106.875 L123.0625 -106.875 L123.0625 106.875 L-123.0625 106.875" stroke="none" stroke-width="0" fill="#cde498"/><path d="M-123.0625 -106.875 C-61.17743270838683 -106.875, 0.7076345832263371 -106.875, 123.0625 -106.875 M-123.0625 -106.875 C-45.985838085242335 -106.875, 31.09082382951533 -106.875, 123.0625 -106.875 M123.0625 -106.875 C123.0625 -49.236536624027615, 123.0625 8.401926751944771, 123.0625 106.875 M123.0625 -106.875 C123.0625 -57.71674771357771, 123.0625 -8.558495427155421, 123.0625 106.875 M123.0625 106.875 C41.9863667733851 106.875, -39.0897664532298 106.875, -123.0625 106.875 M123.0625 106.875 C49.5145660739486 106.875, -24.0333678521028 106.875, -123.0625 106.875 M-123.0625 106.875 C-123.0625 28.570973681711877, -123.0625 -49.73305263657625, -123.0625 -106.875 M-123.0625 106.875 C-123.0625 34.872232362874385, -123.0625 -37.13053527425123, -123.0625 -106.875" stroke="#13540c" stroke-width="1.3" fill="none" stroke-dasharray="0 0"/></g><g style="" class="row-rect-odd"><path d="M-123.0625 -64.125 L123.0625 -64.125 L123.0625 -21.375 L-123.0625 -21.375" stroke="none" stroke-width="0" fill="hsl(78.1578947368, 58.4615384615%, 100%)"/><path d="M-123.0625 -64.125 C-35.27045608215771 -64.125, 52.521587835684585 -64.125, 123.0625 -64.125 M-123.0625 -64.125 C-58.107909618792974 -64.125, 6.846680762414053 -64.125, 123.0625 -64.125 M123.0625 -64.125 C123.0625 -51.68008344031515, 123.0625 -39.2351668806303, 123.0625 -21.375 M123.0625 -64.125 C123.0625 -47.79042988255779, 123.0625 -31.455859765115584, 123.0625 -21.375 M123.0625 -21.375 C24.98768381233566 -21.375, -73.08713237532868 -21.375, -123.0625 -21.375 M123.0625 -21.375 C45.97886246323189 -21.375, -31.104775073536217 -21.375, -123.0625 -21.375 M-123.0625 -21.375 C-123.0625 -31.64676598491676, -123.0625 -41.91853196983352, -123.0625 -64.125 M-123.0625 -21.375 C-123.0625 -31.82503938429491, -123.0625 -42.27507876858982, -123.0625 -64.125" stroke="#13540c" stroke-width="1.3" fill="none" stroke-dasharray="0 0"/></g><g style="" class="row-rect-even"><path d="M-123.0625 -21.375 L123.0625 -21.375 L123.0625 21.375 L-123.0625 21.375" stroke="none" stroke-width="0" fill="hsl(78.1578947368, 58.4615384615%, 94.5098039216%)"/><path d="M-123.0625 -21.375 C-68.80166898985088 -21.375, -14.540837979701763 -21.375, 123.0625 -21.375 M-123.0625 -21.375 C-57.08210239034538 -21.375, 8.898295219309233 -21.375, 123.0625 -21.375 M123.0625 -21.375 C123.0625 -11.473112988498212, 123.0625 -1.5712259769964234, 123.0625 21.375 M123.0625 -21.375 C123.0625 -11.644453362552236, 123.0625 -1.9139067251044715, 123.0625 21.375 M123.0625 21.375 C37.87978343163917 21.375, -47.30293313672166 21.375, -123.0625 21.375 M123.0625 21.375 C39.55887233670056 21.375, -43.94475532659888 21.375, -123.0625 21.375 M-123.0625 21.375 C-123.0625 5.19466322563224, -123.0625 -10.98567354873552, -123.0625 -21.375 M-123.0625 21.375 C-123.0625 8.73795128444291, -123.0625 -3.8990974311141784, -123.0625 -21.375" stroke="#13540c" stroke-width="1.3" fill="none" stroke-dasharray="0 0"/></g><g style="" class="row-rect-odd"><path d="M-123.0625 21.375 L123.0625 21.375 L123.0625 64.125 L-123.0625 64.125" stroke="none" stroke-width="0" fill="hsl(78.1578947368, 58.4615384615%, 100%)"/><path d="M-123.0625 21.375 C-35.65423995984035 21.375, 51.75402008031929 21.375, 123.0625 21.375 M-123.0625 21.375 C-24.934370763496176 21.375, 73.19375847300765 21.375, 123.0625 21.375 M123.0625 21.375 C123.0625 37.974601623011665, 123.0625 54.57420324602332, 123.0625 64.125 M123.0625 21.375 C123.0625 37.81956807845519, 123.0625 54.26413615691039, 123.0625 64.125 M123.0625 64.125 C51.31391863380506 64.125, -20.43466273238988 64.125, -123.0625 64.125 M123.0625 64.125 C61.41030994020944 64.125, -0.24188011958112554 64.125, -123.0625 64.125 M-123.0625 64.125 C-123.0625 51.666385103070624, -123.0625 39.207770206141255, -123.0625 21.375 M-123.0625 64.125 C-123.0625 52.585071728452924, -123.0625 41.04514345690585, -123.0625 21.375" stroke="#13540c" stroke-width="1.3" fill="none" stroke-dasharray="0 0"/></g><g style="" class="row-rect-even"><path d="M-123.0625 64.125 L123.0625 64.125 L123.0625 106.875 L-123.0625 106.875" stroke="none" stroke-width="0" fill="hsl(78.1578947368, 58.4615384615%, 94.5098039216%)"/><path d="M-123.0625 64.125 C-44.50585623983228 64.125, 34.05078752033543 64.125, 123.0625 64.125 M-123.0625 64.125 C-47.433282786445716 64.125, 28.19593442710857 64.125, 123.0625 64.125 M123.0625 64.125 C123.0625 73.37556262471806, 123.0625 82.62612524943611, 123.0625 106.875 M123.0625 64.125 C123.0625 78.5716538793303, 123.0625 93.0183077586606, 123.0625 106.875 M123.0625 106.875 C47.762260839351896 106.875, -27.537978321296208 106.875, -123.0625 106.875 M123.0625 106.875 C39.57239612314592 106.875, -43.91770775370816 106.875, -123.0625 106.875 M-123.0625 106.875 C-123.0625 93.06823720323379, -123.0625 79.26147440646757, -123.0625 64.125 M-123.0625 106.875 C-123.0625 97.30326061643694, -123.0625 87.73152123287389, -123.0625 64.125" stroke="#13540c" stroke-width="1.3" fill="none" stroke-dasharray="0 0"/></g><g class="label name" transform="translate(-51.375, -97.5)" style=""><foreignObject width="102.75" height="24"><div xmlns="http://www.w3.org/1999/xhtml" style="display: table-cell; white-space: nowrap; line-height: 1.5; max-width: 197px; text-align: start;"><span class="nodeLabel"><p>Movimentacao</p></span></div></foreignObject></g><g class="label attribute-type" transform="translate(-110.5625, -54.75)" style=""><foreignObject width="19.546875" height="24"><div xmlns="http://www.w3.org/1999/xhtml" style="display: table-cell; white-space: nowrap; line-height: 1.5; max-width: 118px; text-align: start;"><span class="nodeLabel"><p>Int</p></span></div></foreignObject></g><g class="label attribute-name" transform="translate(-17.078125, -54.75)" style=""><foreignObject width="13.484375" height="24"><div xmlns="http://www.w3.org/1999/xhtml" style="display: table-cell; white-space: nowrap; line-height: 1.5; max-width: 113px; text-align: start;"><span class="nodeLabel"><p>id</p></span></div></foreignObject></g><g class="label attribute-keys" transform="translate(88.59375, -54.75)" style=""><foreignObject width="0" height="0"><div xmlns="http://www.w3.org/1999/xhtml" style="display: table-cell; white-space: nowrap; line-height: 1.5; max-width: 100px; text-align: start;"><span class="nodeLabel"></span></div></foreignObject></g><g class="label attribute-comment" transform="translate(88.59375, -54.75)" style=""><foreignObject width="21.96875" height="24"><div xmlns="http://www.w3.org/1999/xhtml" style="display: table-cell; white-space: nowrap; line-height: 1.5; max-width: 122px; text-align: start;"><span class="nodeLabel"><p>🗝️</p></span></div></foreignObject></g><g class="label attribute-type" transform="translate(-110.5625, -12)" style=""><foreignObject width="41.59375" height="24"><div xmlns="http://www.w3.org/1999/xhtml" style="display: table-cell; white-space: nowrap; line-height: 1.5; max-width: 139px; text-align: start;"><span class="nodeLabel"><p>String</p></span></div></foreignObject></g><g class="label attribute-name" transform="translate(-17.078125, -12)" style=""><foreignObject width="28.40625" height="24"><div xmlns="http://www.w3.org/1999/xhtml" style="display: table-cell; white-space: nowrap; line-height: 1.5; max-width: 126px; text-align: start;"><span class="nodeLabel"><p>tipo</p></span></div></foreignObject></g><g class="label attribute-keys" transform="translate(88.59375, -12)" style=""><foreignObject width="0" height="0"><div xmlns="http://www.w3.org/1999/xhtml" style="display: table-cell; white-space: nowrap; line-height: 1.5; max-width: 100px; text-align: start;"><span class="nodeLabel"></span></div></foreignObject></g><g class="label attribute-comment" transform="translate(88.59375, -12)" style=""><foreignObject width="0" height="0"><div xmlns="http://www.w3.org/1999/xhtml" style="display: table-cell; white-space: nowrap; line-height: 1.5; max-width: 100px; text-align: start;"><span class="nodeLabel"></span></div></foreignObject></g><g class="label attribute-type" transform="translate(-110.5625, 30.75)" style=""><foreignObject width="19.546875" height="24"><div xmlns="http://www.w3.org/1999/xhtml" style="display: table-cell; white-space: nowrap; line-height: 1.5; max-width: 118px; text-align: start;"><span class="nodeLabel"><p>Int</p></span></div></foreignObject></g><g class="label attribute-name" transform="translate(-17.078125, 30.75)" style=""><foreignObject width="80.671875" height="24"><div xmlns="http://www.w3.org/1999/xhtml" style="display: table-cell; white-space: nowrap; line-height: 1.5; max-width: 170px; text-align: start;"><span class="nodeLabel"><p>quantidade</p></span></div></foreignObject></g><g class="label attribute-keys" transform="translate(88.59375, 30.75)" style=""><foreignObject width="0" height="0"><div xmlns="http://www.w3.org/1999/xhtml" style="display: table-cell; white-space: nowrap; line-height: 1.5; max-width: 100px; text-align: start;"><span class="nodeLabel"></span></div></foreignObject></g><g class="label attribute-comment" transform="translate(88.59375, 30.75)" style=""><foreignObject width="0" height="0"><div xmlns="http://www.w3.org/1999/xhtml" style="display: table-cell; white-space: nowrap; line-height: 1.5; max-width: 100px; text-align: start;"><span class="nodeLabel"></span></div></foreignObject></g><g class="label attribute-type" transform="translate(-110.5625, 73.5)" style=""><foreignObject width="68.484375" height="24"><div xmlns="http://www.w3.org/1999/xhtml" style="display: table-cell; white-space: nowrap; line-height: 1.5; max-width: 164px; text-align: start;"><span class="nodeLabel"><p>DateTime</p></span></div></foreignObject></g><g class="label attribute-name" transform="translate(-17.078125, 73.5)" style=""><foreignObject width="75.015625" height="24"><div xmlns="http://www.w3.org/1999/xhtml" style="display: table-cell; white-space: nowrap; line-height: 1.5; max-width: 168px; text-align: start;"><span class="nodeLabel"><p>criado_em</p></span></div></foreignObject></g><g class="label attribute-keys" transform="translate(88.59375, 73.5)" style=""><foreignObject width="0" height="0"><div xmlns="http://www.w3.org/1999/xhtml" style="display: table-cell; white-space: nowrap; line-height: 1.5; max-width: 100px; text-align: start;"><span class="nodeLabel"></span></div></foreignObject></g><g class="label attribute-comment" transform="translate(88.59375, 73.5)" style=""><foreignObject width="0" height="0"><div xmlns="http://www.w3.org/1999/xhtml" style="display: table-cell; white-space: nowrap; line-height: 1.5; max-width: 100px; text-align: start;"><span class="nodeLabel"></span></div></foreignObject></g><g class="divider"><path d="M-123.0625 -64.12505 L-123.0625 -64.12495 L123.0625 -64.12495 L123.0625 -64.12505" stroke="none" stroke-width="0" fill="#cde498" fill-rule="evenodd"/><path d="M-123.0625 -64.12505 C-123.0625 -64.12502621271518, -123.0625 -64.12500242543035, -123.0625 -64.12495 M-123.0625 -64.12505 C-123.0625 -64.12502038557982, -123.0625 -64.12499077115963, -123.0625 -64.12495 M-123.0625 -64.12495 C-70.33030431460838 -64.12495, -17.598108629216753 -64.12495, 123.0625 -64.12495 M-123.0625 -64.12495 C-70.90350619759991 -64.12495, -18.74451239519982 -64.12495, 123.0625 -64.12495 M123.0625 -64.12495 C123.0625 -64.12498851241969, 123.0625 -64.12502702483938, 123.0625 -64.12505 M123.0625 -64.12495 C123.0625 -64.12497181702952, 123.0625 -64.12499363405905, 123.0625 -64.12505 M123.0625 -64.12505 C47.87115975182631 -64.12505, -27.320180496347376 -64.12505, -123.0625 -64.12505 M123.0625 -64.12505 C50.5172899468637 -64.12505, -22.027920106272603 -64.12505, -123.0625 -64.12505" stroke="#13540c" stroke-width="1.3" fill="none" stroke-dasharray="0 0"/></g><g class="divider"><path d="M-29.578175 -64.125 L-29.578075 -64.125 L-29.578075 106.875 L-29.578175 106.875" stroke="none" stroke-width="0" fill="#cde498" fill-rule="evenodd"/><path d="M-29.578175 -64.125 C-29.578147759978993 -64.125, -29.578120519957984 -64.125, -29.578075 -64.125 M-29.578175 -64.125 C-29.578153566936386 -64.125, -29.57813213387277 -64.125, -29.578075 -64.125 M-29.578075 -64.125 C-29.578075 -16.875069997789893, -29.578075 30.374860004420213, -29.578075 106.875 M-29.578075 -64.125 C-29.578075 -2.0414567770268306, -29.578075 60.04208644594634, -29.578075 106.875 M-29.578075 106.875 C-29.578095701463315 106.875, -29.578116402926632 106.875, -29.578175 106.875 M-29.578075 106.875 C-29.57810478326654 106.875, -29.57813456653308 106.875, -29.578175 106.875 M-29.578175 106.875 C-29.578175 50.247045647174765, -29.578175 -6.380908705650469, -29.578175 -64.125 M-29.578175 106.875 C-29.578175 47.89532838838881, -29.578175 -11.084343223222376, -29.578175 -64.125" stroke="#13540c" stroke-width="1.3" fill="none" stroke-dasharray="0 0"/></g><g class="divider"><path d="M76.0937 -64.125 L76.0938 -64.125 L76.0938 106.875 L76.0937 106.875" stroke="none" stroke-width="0" fill="#cde498" fill-rule="evenodd"/><path d="M76.0937 -64.125 C76.09372555867402 -64.125, 76.09375111734805 -64.125, 76.0938 -64.125 M76.0937 -64.125 C76.09372130322976 -64.125, 76.09374260645953 -64.125, 76.0938 -64.125 M76.0938 -64.125 C76.0938 -10.645220700463064, 76.0938 42.83455859907387, 76.0938 106.875 M76.0938 -64.125 C76.0938 -14.538274230438219, 76.0938 35.04845153912356, 76.0938 106.875 M76.0938 106.875 C76.09376605673133 106.875, 76.09373211346264 106.875, 76.0937 106.875 M76.0938 106.875 C76.09377423746777 106.875, 76.09374847493552 106.875, 76.0937 106.875 M76.0937 106.875 C76.0937 68.97889620030892, 76.0937 31.082792400617848, 76.0937 -64.125 M76.0937 106.875 C76.0937 72.21104464515426, 76.0937 37.54708929030852, 76.0937 -64.125" stroke="#13540c" stroke-width="1.3" fill="none" stroke-dasharray="0 0"/></g><g class="divider"><path d="M-123.0625 -64.12505 L-123.0625 -64.12495 L123.0625 -64.12495 L123.0625 -64.12505" stroke="none" stroke-width="0" fill="#cde498" fill-rule="evenodd"/><path d="M-123.0625 -64.12505 C-123.0625 -64.12501371285329, -123.0625 -64.12497742570659, -123.0625 -64.12495 M-123.0625 -64.12505 C-123.0625 -64.12502099135274, -123.0625 -64.12499198270548, -123.0625 -64.12495 M-123.0625 -64.12495 C-45.496552401181646 -64.12495, 32.06939519763671 -64.12495, 123.0625 -64.12495 M-123.0625 -64.12495 C-43.206127856446386 -64.12495, 36.65024428710723 -64.12495, 123.0625 -64.12495 M123.0625 -64.12495 C123.0625 -64.12498012821098, 123.0625 -64.12501025642196, 123.0625 -64.12505 M123.0625 -64.12495 C123.0625 -64.12498461676141, 123.0625 -64.12501923352283, 123.0625 -64.12505 M123.0625 -64.12505 C44.60399618655809 -64.12505, -33.854507626883816 -64.12505, -123.0625 -64.12505 M123.0625 -64.12505 C55.52879640564153 -64.12505, -12.004907188716942 -64.12505, -123.0625 -64.12505" stroke="#13540c" stroke-width="1.3" fill="none" stroke-dasharray="0 0"/></g></g><g class="node default" id="my-svg-entity-Produto-2" data-look="classic" transform="translate(131.0625, 622)"><g class="outer-path" style=""><path d="M-123.0625 -128.25 L123.0625 -128.25 L123.0625 128.25 L-123.0625 128.25" stroke="none" stroke-width="0" fill="#cde498"/><path d="M-123.0625 -128.25 C-64.95301454611663 -128.25, -6.843529092233268 -128.25, 123.0625 -128.25 M-123.0625 -128.25 C-27.352430922691283 -128.25, 68.35763815461743 -128.25, 123.0625 -128.25 M123.0625 -128.25 C123.0625 -55.165499484293775, 123.0625 17.91900103141245, 123.0625 128.25 M123.0625 -128.25 C123.0625 -68.47544912595697, 123.0625 -8.700898251913955, 123.0625 128.25 M123.0625 128.25 C64.73494854956381 128.25, 6.407397099127621 128.25, -123.0625 128.25 M123.0625 128.25 C37.60542611277263 128.25, -47.85164777445473 128.25, -123.0625 128.25 M-123.0625 128.25 C-123.0625 32.98383024444429, -123.0625 -62.28233951111142, -123.0625 -128.25 M-123.0625 128.25 C-123.0625 31.973706607682004, -123.0625 -64.30258678463599, -123.0625 -128.25" stroke="#13540c" stroke-width="1.3" fill="none" stroke-dasharray="0 0"/></g><g style="" class="row-rect-odd"><path d="M-123.0625 -85.5 L123.0625 -85.5 L123.0625 -42.75 L-123.0625 -42.75" stroke="none" stroke-width="0" fill="hsl(78.1578947368, 58.4615384615%, 100%)"/><path d="M-123.0625 -85.5 C-34.343522857081524 -85.5, 54.37545428583695 -85.5, 123.0625 -85.5 M-123.0625 -85.5 C-40.32419246950687 -85.5, 42.41411506098626 -85.5, 123.0625 -85.5 M123.0625 -85.5 C123.0625 -69.70747993838091, 123.0625 -53.91495987676183, 123.0625 -42.75 M123.0625 -85.5 C123.0625 -74.07853183987551, 123.0625 -62.65706367975102, 123.0625 -42.75 M123.0625 -42.75 C43.442034575484755 -42.75, -36.17843084903049 -42.75, -123.0625 -42.75 M123.0625 -42.75 C59.05285472200195 -42.75, -4.956790555996093 -42.75, -123.0625 -42.75 M-123.0625 -42.75 C-123.0625 -55.92599377820765, -123.0625 -69.1019875564153, -123.0625 -85.5 M-123.0625 -42.75 C-123.0625 -58.05476376294392, -123.0625 -73.35952752588784, -123.0625 -85.5" stroke="#13540c" stroke-width="1.3" fill="none" stroke-dasharray="0 0"/></g><g style="" class="row-rect-even"><path d="M-123.0625 -42.75 L123.0625 -42.75 L123.0625 0 L-123.0625 0" stroke="none" stroke-width="0" fill="hsl(78.1578947368, 58.4615384615%, 94.5098039216%)"/><path d="M-123.0625 -42.75 C-70.922291408197 -42.75, -18.78208281639401 -42.75, 123.0625 -42.75 M-123.0625 -42.75 C-66.4684099581915 -42.75, -9.874319916383016 -42.75, 123.0625 -42.75 M123.0625 -42.75 C123.0625 -31.95557703259214, 123.0625 -21.161154065184277, 123.0625 0 M123.0625 -42.75 C123.0625 -31.862582767167787, 123.0625 -20.975165534335574, 123.0625 0 M123.0625 0 C59.12466612123101 0, -4.8131677575379825 0, -123.0625 0 M123.0625 0 C70.64272957822539 0, 18.222959156450756 0, -123.0625 0 M-123.0625 0 C-123.0625 -13.552293543124096, -123.0625 -27.10458708624819, -123.0625 -42.75 M-123.0625 0 C-123.0625 -15.88804075578087, -123.0625 -31.77608151156174, -123.0625 -42.75" stroke="#13540c" stroke-width="1.3" fill="none" stroke-dasharray="0 0"/></g><g style="" class="row-rect-odd"><path d="M-123.0625 0 L123.0625 0 L123.0625 42.75 L-123.0625 42.75" stroke="none" stroke-width="0" fill="hsl(78.1578947368, 58.4615384615%, 100%)"/><path d="M-123.0625 0 C-26.106894305106465 0, 70.84871138978707 0, 123.0625 0 M-123.0625 0 C-52.016829898919 0, 19.028840202162 0, 123.0625 0 M123.0625 0 C123.0625 8.850310950240512, 123.0625 17.700621900481025, 123.0625 42.75 M123.0625 0 C123.0625 13.755861831261742, 123.0625 27.511723662523483, 123.0625 42.75 M123.0625 42.75 C72.78792446429011 42.75, 22.513348928580243 42.75, -123.0625 42.75 M123.0625 42.75 C53.82255096210588 42.75, -15.417398075788242 42.75, -123.0625 42.75 M-123.0625 42.75 C-123.0625 31.254331023625188, -123.0625 19.758662047250375, -123.0625 0 M-123.0625 42.75 C-123.0625 31.607767095223693, -123.0625 20.46553419044739, -123.0625 0" stroke="#13540c" stroke-width="1.3" fill="none" stroke-dasharray="0 0"/></g><g style="" class="row-rect-even"><path d="M-123.0625 42.75 L123.0625 42.75 L123.0625 85.5 L-123.0625 85.5" stroke="none" stroke-width="0" fill="hsl(78.1578947368, 58.4615384615%, 94.5098039216%)"/><path d="M-123.0625 42.75 C-35.8702247834091 42.75, 51.3220504331818 42.75, 123.0625 42.75 M-123.0625 42.75 C-38.42783243789815 42.75, 46.20683512420371 42.75, 123.0625 42.75 M123.0625 42.75 C123.0625 52.617722732938326, 123.0625 62.48544546587665, 123.0625 85.5 M123.0625 42.75 C123.0625 52.9456637306086, 123.0625 63.141327461217195, 123.0625 85.5 M123.0625 85.5 C45.892798231909865 85.5, -31.27690353618027 85.5, -123.0625 85.5 M123.0625 85.5 C37.61711159187821 85.5, -47.82827681624357 85.5, -123.0625 85.5 M-123.0625 85.5 C-123.0625 74.18368675703114, -123.0625 62.867373514062294, -123.0625 42.75 M-123.0625 85.5 C-123.0625 74.87896191607608, -123.0625 64.25792383215216, -123.0625 42.75" stroke="#13540c" stroke-width="1.3" fill="none" stroke-dasharray="0 0"/></g><g style="" class="row-rect-odd"><path d="M-123.0625 85.5 L123.0625 85.5 L123.0625 128.25 L-123.0625 128.25" stroke="none" stroke-width="0" fill="hsl(78.1578947368, 58.4615384615%, 100%)"/><path d="M-123.0625 85.5 C-24.866702334051382 85.5, 73.32909533189724 85.5, 123.0625 85.5 M-123.0625 85.5 C-26.6974193326795 85.5, 69.667661334641 85.5, 123.0625 85.5 M123.0625 85.5 C123.0625 98.22694927340221, 123.0625 110.95389854680444, 123.0625 128.25 M123.0625 85.5 C123.0625 96.331496336489, 123.0625 107.162992672978, 123.0625 128.25 M123.0625 128.25 C59.91375415362086 128.25, -3.2349916927582854 128.25, -123.0625 128.25 M123.0625 128.25 C68.30372675067478 128.25, 13.544953501349568 128.25, -123.0625 128.25 M-123.0625 128.25 C-123.0625 116.74304846706342, -123.0625 105.23609693412683, -123.0625 85.5 M-123.0625 128.25 C-123.0625 113.36902985673808, -123.0625 98.48805971347616, -123.0625 85.5" stroke="#13540c" stroke-width="1.3" fill="none" stroke-dasharray="0 0"/></g><g class="label name" transform="translate(-27.78125, -118.875)" style=""><foreignObject width="55.5625" height="24"><div xmlns="http://www.w3.org/1999/xhtml" style="display: table-cell; white-space: nowrap; line-height: 1.5; max-width: 152px; text-align: start;"><span class="nodeLabel"><p>Produto</p></span></div></foreignObject></g><g class="label attribute-type" transform="translate(-110.5625, -76.125)" style=""><foreignObject width="19.546875" height="24"><div xmlns="http://www.w3.org/1999/xhtml" style="display: table-cell; white-space: nowrap; line-height: 1.5; max-width: 118px; text-align: start;"><span class="nodeLabel"><p>Int</p></span></div></foreignObject></g><g class="label attribute-name" transform="translate(-17.078125, -76.125)" style=""><foreignObject width="13.484375" height="24"><div xmlns="http://www.w3.org/1999/xhtml" style="display: table-cell; white-space: nowrap; line-height: 1.5; max-width: 113px; text-align: start;"><span class="nodeLabel"><p>id</p></span></div></foreignObject></g><g class="label attribute-keys" transform="translate(88.59375, -76.125)" style=""><foreignObject width="0" height="0"><div xmlns="http://www.w3.org/1999/xhtml" style="display: table-cell; white-space: nowrap; line-height: 1.5; max-width: 100px; text-align: start;"><span class="nodeLabel"></span></div></foreignObject></g><g class="label attribute-comment" transform="translate(88.59375, -76.125)" style=""><foreignObject width="21.96875" height="24"><div xmlns="http://www.w3.org/1999/xhtml" style="display: table-cell; white-space: nowrap; line-height: 1.5; max-width: 122px; text-align: start;"><span class="nodeLabel"><p>🗝️</p></span></div></foreignObject></g><g class="label attribute-type" transform="translate(-110.5625, -33.375)" style=""><foreignObject width="41.59375" height="24"><div xmlns="http://www.w3.org/1999/xhtml" style="display: table-cell; white-space: nowrap; line-height: 1.5; max-width: 139px; text-align: start;"><span class="nodeLabel"><p>String</p></span></div></foreignObject></g><g class="label attribute-name" transform="translate(-17.078125, -33.375)" style=""><foreignObject width="39.34375" height="24"><div xmlns="http://www.w3.org/1999/xhtml" style="display: table-cell; white-space: nowrap; line-height: 1.5; max-width: 137px; text-align: start;"><span class="nodeLabel"><p>nome</p></span></div></foreignObject></g><g class="label attribute-keys" transform="translate(88.59375, -33.375)" style=""><foreignObject width="0" height="0"><div xmlns="http://www.w3.org/1999/xhtml" style="display: table-cell; white-space: nowrap; line-height: 1.5; max-width: 100px; text-align: start;"><span class="nodeLabel"></span></div></foreignObject></g><g class="label attribute-comment" transform="translate(88.59375, -33.375)" style=""><foreignObject width="0" height="0"><div xmlns="http://www.w3.org/1999/xhtml" style="display: table-cell; white-space: nowrap; line-height: 1.5; max-width: 100px; text-align: start;"><span class="nodeLabel"></span></div></foreignObject></g><g class="label attribute-type" transform="translate(-110.5625, 9.375)" style=""><foreignObject width="19.546875" height="24"><div xmlns="http://www.w3.org/1999/xhtml" style="display: table-cell; white-space: nowrap; line-height: 1.5; max-width: 118px; text-align: start;"><span class="nodeLabel"><p>Int</p></span></div></foreignObject></g><g class="label attribute-name" transform="translate(-17.078125, 9.375)" style=""><foreignObject width="80.671875" height="24"><div xmlns="http://www.w3.org/1999/xhtml" style="display: table-cell; white-space: nowrap; line-height: 1.5; max-width: 170px; text-align: start;"><span class="nodeLabel"><p>quantidade</p></span></div></foreignObject></g><g class="label attribute-keys" transform="translate(88.59375, 9.375)" style=""><foreignObject width="0" height="0"><div xmlns="http://www.w3.org/1999/xhtml" style="display: table-cell; white-space: nowrap; line-height: 1.5; max-width: 100px; text-align: start;"><span class="nodeLabel"></span></div></foreignObject></g><g class="label attribute-comment" transform="translate(88.59375, 9.375)" style=""><foreignObject width="0" height="0"><div xmlns="http://www.w3.org/1999/xhtml" style="display: table-cell; white-space: nowrap; line-height: 1.5; max-width: 100px; text-align: start;"><span class="nodeLabel"></span></div></foreignObject></g><g class="label attribute-type" transform="translate(-110.5625, 52.125)" style=""><foreignObject width="57.4375" height="24"><div xmlns="http://www.w3.org/1999/xhtml" style="display: table-cell; white-space: nowrap; line-height: 1.5; max-width: 156px; text-align: start;"><span class="nodeLabel"><p>Decimal</p></span></div></foreignObject></g><g class="label attribute-name" transform="translate(-17.078125, 52.125)" style=""><foreignObject width="40.375" height="24"><div xmlns="http://www.w3.org/1999/xhtml" style="display: table-cell; white-space: nowrap; line-height: 1.5; max-width: 137px; text-align: start;"><span class="nodeLabel"><p>preco</p></span></div></foreignObject></g><g class="label attribute-keys" transform="translate(88.59375, 52.125)" style=""><foreignObject width="0" height="0"><div xmlns="http://www.w3.org/1999/xhtml" style="display: table-cell; white-space: nowrap; line-height: 1.5; max-width: 100px; text-align: start;"><span class="nodeLabel"></span></div></foreignObject></g><g class="label attribute-comment" transform="translate(88.59375, 52.125)" style=""><foreignObject width="0" height="0"><div xmlns="http://www.w3.org/1999/xhtml" style="display: table-cell; white-space: nowrap; line-height: 1.5; max-width: 100px; text-align: start;"><span class="nodeLabel"></span></div></foreignObject></g><g class="label attribute-type" transform="translate(-110.5625, 94.875)" style=""><foreignObject width="68.484375" height="24"><div xmlns="http://www.w3.org/1999/xhtml" style="display: table-cell; white-space: nowrap; line-height: 1.5; max-width: 164px; text-align: start;"><span class="nodeLabel"><p>DateTime</p></span></div></foreignObject></g><g class="label attribute-name" transform="translate(-17.078125, 94.875)" style=""><foreignObject width="75.015625" height="24"><div xmlns="http://www.w3.org/1999/xhtml" style="display: table-cell; white-space: nowrap; line-height: 1.5; max-width: 168px; text-align: start;"><span class="nodeLabel"><p>criado_em</p></span></div></foreignObject></g><g class="label attribute-keys" transform="translate(88.59375, 94.875)" style=""><foreignObject width="0" height="0"><div xmlns="http://www.w3.org/1999/xhtml" style="display: table-cell; white-space: nowrap; line-height: 1.5; max-width: 100px; text-align: start;"><span class="nodeLabel"></span></div></foreignObject></g><g class="label attribute-comment" transform="translate(88.59375, 94.875)" style=""><foreignObject width="0" height="0"><div xmlns="http://www.w3.org/1999/xhtml" style="display: table-cell; white-space: nowrap; line-height: 1.5; max-width: 100px; text-align: start;"><span class="nodeLabel"></span></div></foreignObject></g><g class="divider"><path d="M-123.0625 -85.50005 L-123.0625 -85.49995 L123.0625 -85.49995 L123.0625 -85.50005" stroke="none" stroke-width="0" fill="#cde498" fill-rule="evenodd"/><path d="M-123.0625 -85.50005 C-123.0625 -85.5000186987128, -123.0625 -85.49998739742557, -123.0625 -85.49995 M-123.0625 -85.50005 C-123.0625 -85.5000208934072, -123.0625 -85.49999178681438, -123.0625 -85.49995 M-123.0625 -85.49995 C-30.442924256262145 -85.49995, 62.17665148747571 -85.49995, 123.0625 -85.49995 M-123.0625 -85.49995 C-41.66503335039698 -85.49995, 39.732433299206036 -85.49995, 123.0625 -85.49995 M123.0625 -85.49995 C123.0625 -85.49997150050412, 123.0625 -85.49999300100822, 123.0625 -85.50005 M123.0625 -85.49995 C123.0625 -85.4999891803944, 123.0625 -85.50002836078879, 123.0625 -85.50005 M123.0625 -85.50005 C56.329248022593816 -85.50005, -10.404003954812367 -85.50005, -123.0625 -85.50005 M123.0625 -85.50005 C67.20728597371698 -85.50005, 11.35207194743397 -85.50005, -123.0625 -85.50005" stroke="#13540c" stroke-width="1.3" fill="none" stroke-dasharray="0 0"/></g><g class="divider"><path d="M-29.578175 -85.5 L-29.578075 -85.5 L-29.578075 128.25 L-29.578175 128.25" stroke="none" stroke-width="0" fill="#cde498" fill-rule="evenodd"/><path d="M-29.578175 -85.5 C-29.578150198897653 -85.5, -29.5781253977953 -85.5, -29.578075 -85.5 M-29.578175 -85.5 C-29.578151009097763 -85.5, -29.578127018195524 -85.5, -29.578075 -85.5 M-29.578075 -85.5 C-29.578075 -17.231731734590653, -29.578075 51.036536530818694, -29.578075 128.25 M-29.578075 -85.5 C-29.578075 -33.070822881456905, -29.578075 19.35835423708619, -29.578075 128.25 M-29.578075 128.25 C-29.57809972344214 128.25, -29.57812444688428 128.25, -29.578175 128.25 M-29.578075 128.25 C-29.578101468117506 128.25, -29.57812793623501 128.25, -29.578175 128.25 M-29.578175 128.25 C-29.578175 79.37276516406114, -29.578175 30.49553032812227, -29.578175 -85.5 M-29.578175 128.25 C-29.578175 44.29338465894713, -29.578175 -39.663230682105734, -29.578175 -85.5" stroke="#13540c" stroke-width="1.3" fill="none" stroke-dasharray="0 0"/></g><g class="divider"><path d="M76.0937 -85.5 L76.0938 -85.5 L76.0938 128.25 L76.0937 128.25" stroke="none" stroke-width="0" fill="#cde498" fill-rule="evenodd"/><path d="M76.0937 -85.5 C76.09372044985126 -85.5, 76.09374089970252 -85.5, 76.0938 -85.5 M76.0937 -85.5 C76.09373896960237 -85.5, 76.09377793920474 -85.5, 76.0938 -85.5 M76.0938 -85.5 C76.0938 -4.167446700167844, 76.0938 77.16510659966431, 76.0938 128.25 M76.0938 -85.5 C76.0938 -21.53703712918705, 76.0938 42.4259257416259, 76.0938 128.25 M76.0938 128.25 C76.09376115961555 128.25, 76.0937223192311 128.25, 76.0937 128.25 M76.0938 128.25 C76.09376826063274 128.25, 76.09373652126547 128.25, 76.0937 128.25 M76.0937 128.25 C76.0937 53.488801370244616, 76.0937 -21.272397259510768, 76.0937 -85.5 M76.0937 128.25 C76.0937 66.85008539572176, 76.0937 5.450170791443526, 76.0937 -85.5" stroke="#13540c" stroke-width="1.3" fill="none" stroke-dasharray="0 0"/></g><g class="divider"><path d="M-123.0625 -85.50005 L-123.0625 -85.49995 L123.0625 -85.49995 L123.0625 -85.50005" stroke="none" stroke-width="0" fill="#cde498" fill-rule="evenodd"/><path d="M-123.0625 -85.50005 C-123.0625 -85.50002950262126, -123.0625 -85.5000090052425, -123.0625 -85.49995 M-123.0625 -85.50005 C-123.0625 -85.5000282665576, -123.0625 -85.50000653311523, -123.0625 -85.49995 M-123.0625 -85.49995 C-48.46989899139854 -85.49995, 26.122702017202926 -85.49995, 123.0625 -85.49995 M-123.0625 -85.49995 C-27.124129323926653 -85.49995, 68.8142413521467 -85.49995, 123.0625 -85.49995 M123.0625 -85.49995 C123.0625 -85.49998689709389, 123.0625 -85.5000237941878, 123.0625 -85.50005 M123.0625 -85.49995 C123.0625 -85.49997634841392, 123.0625 -85.50000269682783, 123.0625 -85.50005 M123.0625 -85.50005 C39.424026656536086 -85.50005, -44.21444668692783 -85.50005, -123.0625 -85.50005 M123.0625 -85.50005 C60.96525259627966 -85.50005, -1.1319948074406767 -85.50005, -123.0625 -85.50005" stroke="#13540c" stroke-width="1.3" fill="none" stroke-dasharray="0 0"/></g></g><g class="node default" id="my-svg-entity-Usuario-3" data-look="classic" transform="translate(529.390625, 200.375)"><g class="outer-path" style=""><path d="M-135.265625 -192.375 L135.265625 -192.375 L135.265625 192.375 L-135.265625 192.375" stroke="none" stroke-width="0" fill="#cde498"/><path d="M-135.265625 -192.375 C-65.505496559479 -192.375, 4.254631881042002 -192.375, 135.265625 -192.375 M-135.265625 -192.375 C-64.33344236908786 -192.375, 6.598740261824275 -192.375, 135.265625 -192.375 M135.265625 -192.375 C135.265625 -103.96180395798527, 135.265625 -15.548607915970535, 135.265625 192.375 M135.265625 -192.375 C135.265625 -114.50739354766563, 135.265625 -36.63978709533126, 135.265625 192.375 M135.265625 192.375 C45.55475629892851 192.375, -44.15611240214298 192.375, -135.265625 192.375 M135.265625 192.375 C35.129414502906585 192.375, -65.00679599418683 192.375, -135.265625 192.375 M-135.265625 192.375 C-135.265625 73.78026850888783, -135.265625 -44.81446298222434, -135.265625 -192.375 M-135.265625 192.375 C-135.265625 40.38557637643379, -135.265625 -111.60384724713242, -135.265625 -192.375" stroke="#13540c" stroke-width="1.3" fill="none" stroke-dasharray="0 0"/></g><g style="" class="row-rect-odd"><path d="M-135.265625 -149.625 L135.265625 -149.625 L135.265625 -106.875 L-135.265625 -106.875" stroke="none" stroke-width="0" fill="hsl(78.1578947368, 58.4615384615%, 100%)"/><path d="M-135.265625 -149.625 C-38.392116845115694 -149.625, 58.48139130976861 -149.625, 135.265625 -149.625 M-135.265625 -149.625 C-45.60180260560678 -149.625, 44.06201978878644 -149.625, 135.265625 -149.625 M135.265625 -149.625 C135.265625 -135.0510932608483, 135.265625 -120.47718652169658, 135.265625 -106.875 M135.265625 -149.625 C135.265625 -135.04272860583086, 135.265625 -120.4604572116617, 135.265625 -106.875 M135.265625 -106.875 C69.70676016533325 -106.875, 4.1478953306665005 -106.875, -135.265625 -106.875 M135.265625 -106.875 C80.45662408731603 -106.875, 25.64762317463206 -106.875, -135.265625 -106.875 M-135.265625 -106.875 C-135.265625 -121.98696078042511, -135.265625 -137.09892156085021, -135.265625 -149.625 M-135.265625 -106.875 C-135.265625 -116.35697330325252, -135.265625 -125.83894660650503, -135.265625 -149.625" stroke="#13540c" stroke-width="1.3" fill="none" stroke-dasharray="0 0"/></g><g style="" class="row-rect-even"><path d="M-135.265625 -106.875 L135.265625 -106.875 L135.265625 -64.125 L-135.265625 -64.125" stroke="none" stroke-width="0" fill="hsl(78.1578947368, 58.4615384615%, 94.5098039216%)"/><path d="M-135.265625 -106.875 C-36.53723452952515 -106.875, 62.1911559409497 -106.875, 135.265625 -106.875 M-135.265625 -106.875 C-61.22922228216589 -106.875, 12.807180435668215 -106.875, 135.265625 -106.875 M135.265625 -106.875 C135.265625 -96.3655371131759, 135.265625 -85.85607422635182, 135.265625 -64.125 M135.265625 -106.875 C135.265625 -93.19304995610935, 135.265625 -79.5110999122187, 135.265625 -64.125 M135.265625 -64.125 C64.75544020026116 -64.125, -5.754744599477675 -64.125, -135.265625 -64.125 M135.265625 -64.125 C63.195793451819625 -64.125, -8.87403809636075 -64.125, -135.265625 -64.125 M-135.265625 -64.125 C-135.265625 -75.16140869379949, -135.265625 -86.19781738759899, -135.265625 -106.875 M-135.265625 -64.125 C-135.265625 -73.79769203593668, -135.265625 -83.47038407187335, -135.265625 -106.875" stroke="#13540c" stroke-width="1.3" fill="none" stroke-dasharray="0 0"/></g><g style="" class="row-rect-odd"><path d="M-135.265625 -64.125 L135.265625 -64.125 L135.265625 -21.375 L-135.265625 -21.375" stroke="none" stroke-width="0" fill="hsl(78.1578947368, 58.4615384615%, 100%)"/><path d="M-135.265625 -64.125 C-37.915998039785975 -64.125, 59.43362892042805 -64.125, 135.265625 -64.125 M-135.265625 -64.125 C-73.88122214481854 -64.125, -12.496819289637088 -64.125, 135.265625 -64.125 M135.265625 -64.125 C135.265625 -53.039134118479325, 135.265625 -41.95326823695865, 135.265625 -21.375 M135.265625 -64.125 C135.265625 -51.92884689759192, 135.265625 -39.732693795183835, 135.265625 -21.375 M135.265625 -21.375 C53.69786043500248 -21.375, -27.869904129995035 -21.375, -135.265625 -21.375 M135.265625 -21.375 C38.82793730345384 -21.375, -57.60975039309233 -21.375, -135.265625 -21.375 M-135.265625 -21.375 C-135.265625 -33.721747431002555, -135.265625 -46.06849486200511, -135.265625 -64.125 M-135.265625 -21.375 C-135.265625 -34.00787854597002, -135.265625 -46.640757091940046, -135.265625 -64.125" stroke="#13540c" stroke-width="1.3" fill="none" stroke-dasharray="0 0"/></g><g style="" class="row-rect-even"><path d="M-135.265625 -21.375 L135.265625 -21.375 L135.265625 21.375 L-135.265625 21.375" stroke="none" stroke-width="0" fill="hsl(78.1578947368, 58.4615384615%, 94.5098039216%)"/><path d="M-135.265625 -21.375 C-35.441868790311545 -21.375, 64.38188741937691 -21.375, 135.265625 -21.375 M-135.265625 -21.375 C-28.47634046616743 -21.375, 78.31294406766514 -21.375, 135.265625 -21.375 M135.265625 -21.375 C135.265625 -4.876076643984234, 135.265625 11.622846712031532, 135.265625 21.375 M135.265625 -21.375 C135.265625 -10.02773696974375, 135.265625 1.3195260605125014, 135.265625 21.375 M135.265625 21.375 C45.29485069035964 21.375, -44.675923619280724 21.375, -135.265625 21.375 M135.265625 21.375 C47.92234286855424 21.375, -39.42093926289152 21.375, -135.265625 21.375 M-135.265625 21.375 C-135.265625 11.657347572326238, -135.265625 1.9396951446524753, -135.265625 -21.375 M-135.265625 21.375 C-135.265625 11.286197353872046, -135.265625 1.1973947077440918, -135.265625 -21.375" stroke="#13540c" stroke-width="1.3" fill="none" stroke-dasharray="0 0"/></g><g style="" class="row-rect-odd"><path d="M-135.265625 21.375 L135.265625 21.375 L135.265625 64.125 L-135.265625 64.125" stroke="none" stroke-width="0" fill="hsl(78.1578947368, 58.4615384615%, 100%)"/><path d="M-135.265625 21.375 C-37.80058232446383 21.375, 59.664460351072336 21.375, 135.265625 21.375 M-135.265625 21.375 C-51.80786960608407 21.375, 31.649885787831863 21.375, 135.265625 21.375 M135.265625 21.375 C135.265625 35.88129096265959, 135.265625 50.38758192531919, 135.265625 64.125 M135.265625 21.375 C135.265625 34.92279390394151, 135.265625 48.47058780788303, 135.265625 64.125 M135.265625 64.125 C38.66273569216554 64.125, -57.94015361566892 64.125, -135.265625 64.125 M135.265625 64.125 C29.11182703123164 64.125, -77.04197093753672 64.125, -135.265625 64.125 M-135.265625 64.125 C-135.265625 47.85985067086382, -135.265625 31.59470134172765, -135.265625 21.375 M-135.265625 64.125 C-135.265625 54.645529272216976, -135.265625 45.16605854443395, -135.265625 21.375" stroke="#13540c" stroke-width="1.3" fill="none" stroke-dasharray="0 0"/></g><g style="" class="row-rect-even"><path d="M-135.265625 64.125 L135.265625 64.125 L135.265625 106.875 L-135.265625 106.875" stroke="none" stroke-width="0" fill="hsl(78.1578947368, 58.4615384615%, 94.5098039216%)"/><path d="M-135.265625 64.125 C-71.50642085671691 64.125, -7.747216713433843 64.125, 135.265625 64.125 M-135.265625 64.125 C-55.36685467088512 64.125, 24.531915658229764 64.125, 135.265625 64.125 M135.265625 64.125 C135.265625 80.08898204838793, 135.265625 96.05296409677587, 135.265625 106.875 M135.265625 64.125 C135.265625 78.3914677396038, 135.265625 92.6579354792076, 135.265625 106.875 M135.265625 106.875 C72.96915119603706 106.875, 10.672677392074121 106.875, -135.265625 106.875 M135.265625 106.875 C53.88240460968446 106.875, -27.500815780631086 106.875, -135.265625 106.875 M-135.265625 106.875 C-135.265625 90.13185550203576, -135.265625 73.38871100407152, -135.265625 64.125 M-135.265625 106.875 C-135.265625 96.49819634675228, -135.265625 86.12139269350457, -135.265625 64.125" stroke="#13540c" stroke-width="1.3" fill="none" stroke-dasharray="0 0"/></g><g style="" class="row-rect-odd"><path d="M-135.265625 106.875 L135.265625 106.875 L135.265625 149.625 L-135.265625 149.625" stroke="none" stroke-width="0" fill="hsl(78.1578947368, 58.4615384615%, 100%)"/><path d="M-135.265625 106.875 C-59.488270471298364 106.875, 16.289084057403272 106.875, 135.265625 106.875 M-135.265625 106.875 C-48.18096802646143 106.875, 38.90368894707714 106.875, 135.265625 106.875 M135.265625 106.875 C135.265625 117.02758733769346, 135.265625 127.18017467538692, 135.265625 149.625 M135.265625 106.875 C135.265625 123.15736824013062, 135.265625 139.43973648026125, 135.265625 149.625 M135.265625 149.625 C59.70158018086302 149.625, -15.862464638273963 149.625, -135.265625 149.625 M135.265625 149.625 C31.79635292824871 149.625, -71.67291914350258 149.625, -135.265625 149.625 M-135.265625 149.625 C-135.265625 134.71069309867895, -135.265625 119.79638619735789, -135.265625 106.875 M-135.265625 149.625 C-135.265625 133.9732027675729, -135.265625 118.32140553514577, -135.265625 106.875" stroke="#13540c" stroke-width="1.3" fill="none" stroke-dasharray="0 0"/></g><g style="" class="row-rect-even"><path d="M-135.265625 149.625 L135.265625 149.625 L135.265625 192.375 L-135.265625 192.375" stroke="none" stroke-width="0" fill="hsl(78.1578947368, 58.4615384615%, 94.5098039216%)"/><path d="M-135.265625 149.625 C-76.73507939869943 149.625, -18.204533797398852 149.625, 135.265625 149.625 M-135.265625 149.625 C-31.11051109187939 149.625, 73.04460281624122 149.625, 135.265625 149.625 M135.265625 149.625 C135.265625 163.7588854298288, 135.265625 177.89277085965765, 135.265625 192.375 M135.265625 149.625 C135.265625 158.94373211927712, 135.265625 168.26246423855426, 135.265625 192.375 M135.265625 192.375 C36.08894201771132 192.375, -63.087740964577364 192.375, -135.265625 192.375 M135.265625 192.375 C47.68278769377443 192.375, -39.90004961245114 192.375, -135.265625 192.375 M-135.265625 192.375 C-135.265625 177.76854953307046, -135.265625 163.1620990661409, -135.265625 149.625 M-135.265625 192.375 C-135.265625 181.92573141831946, -135.265625 171.47646283663892, -135.265625 149.625" stroke="#13540c" stroke-width="1.3" fill="none" stroke-dasharray="0 0"/></g><g class="label name" transform="translate(-26.6875, -183)" style=""><foreignObject width="53.375" height="24"><div xmlns="http://www.w3.org/1999/xhtml" style="display: table-cell; white-space: nowrap; line-height: 1.5; max-width: 152px; text-align: start;"><span class="nodeLabel"><p>Usuario</p></span></div></foreignObject></g><g class="label attribute-type" transform="translate(-122.765625, -140.25)" style=""><foreignObject width="19.546875" height="24"><div xmlns="http://www.w3.org/1999/xhtml" style="display: table-cell; white-space: nowrap; line-height: 1.5; max-width: 118px; text-align: start;"><span class="nodeLabel"><p>Int</p></span></div></foreignObject></g><g class="label attribute-name" transform="translate(-29.28125, -140.25)" style=""><foreignObject width="13.484375" height="24"><div xmlns="http://www.w3.org/1999/xhtml" style="display: table-cell; white-space: nowrap; line-height: 1.5; max-width: 113px; text-align: start;"><span class="nodeLabel"><p>id</p></span></div></foreignObject></g><g class="label attribute-keys" transform="translate(100.796875, -140.25)" style=""><foreignObject width="0" height="0"><div xmlns="http://www.w3.org/1999/xhtml" style="display: table-cell; white-space: nowrap; line-height: 1.5; max-width: 100px; text-align: start;"><span class="nodeLabel"></span></div></foreignObject></g><g class="label attribute-comment" transform="translate(100.796875, -140.25)" style=""><foreignObject width="21.96875" height="24"><div xmlns="http://www.w3.org/1999/xhtml" style="display: table-cell; white-space: nowrap; line-height: 1.5; max-width: 122px; text-align: start;"><span class="nodeLabel"><p>🗝️</p></span></div></foreignObject></g><g class="label attribute-type" transform="translate(-122.765625, -97.5)" style=""><foreignObject width="41.59375" height="24"><div xmlns="http://www.w3.org/1999/xhtml" style="display: table-cell; white-space: nowrap; line-height: 1.5; max-width: 139px; text-align: start;"><span class="nodeLabel"><p>String</p></span></div></foreignObject></g><g class="label attribute-name" transform="translate(-29.28125, -97.5)" style=""><foreignObject width="39.34375" height="24"><div xmlns="http://www.w3.org/1999/xhtml" style="display: table-cell; white-space: nowrap; line-height: 1.5; max-width: 137px; text-align: start;"><span class="nodeLabel"><p>nome</p></span></div></foreignObject></g><g class="label attribute-keys" transform="translate(100.796875, -97.5)" style=""><foreignObject width="0" height="0"><div xmlns="http://www.w3.org/1999/xhtml" style="display: table-cell; white-space: nowrap; line-height: 1.5; max-width: 100px; text-align: start;"><span class="nodeLabel"></span></div></foreignObject></g><g class="label attribute-comment" transform="translate(100.796875, -97.5)" style=""><foreignObject width="0" height="0"><div xmlns="http://www.w3.org/1999/xhtml" style="display: table-cell; white-space: nowrap; line-height: 1.5; max-width: 100px; text-align: start;"><span class="nodeLabel"></span></div></foreignObject></g><g class="label attribute-type" transform="translate(-122.765625, -54.75)" style=""><foreignObject width="41.59375" height="24"><div xmlns="http://www.w3.org/1999/xhtml" style="display: table-cell; white-space: nowrap; line-height: 1.5; max-width: 139px; text-align: start;"><span class="nodeLabel"><p>String</p></span></div></foreignObject></g><g class="label attribute-name" transform="translate(-29.28125, -54.75)" style=""><foreignObject width="39.703125" height="24"><div xmlns="http://www.w3.org/1999/xhtml" style="display: table-cell; white-space: nowrap; line-height: 1.5; max-width: 136px; text-align: start;"><span class="nodeLabel"><p>email</p></span></div></foreignObject></g><g class="label attribute-keys" transform="translate(100.796875, -54.75)" style=""><foreignObject width="0" height="0"><div xmlns="http://www.w3.org/1999/xhtml" style="display: table-cell; white-space: nowrap; line-height: 1.5; max-width: 100px; text-align: start;"><span class="nodeLabel"></span></div></foreignObject></g><g class="label attribute-comment" transform="translate(100.796875, -54.75)" style=""><foreignObject width="0" height="0"><div xmlns="http://www.w3.org/1999/xhtml" style="display: table-cell; white-space: nowrap; line-height: 1.5; max-width: 100px; text-align: start;"><span class="nodeLabel"></span></div></foreignObject></g><g class="label attribute-type" transform="translate(-122.765625, -12)" style=""><foreignObject width="41.59375" height="24"><div xmlns="http://www.w3.org/1999/xhtml" style="display: table-cell; white-space: nowrap; line-height: 1.5; max-width: 139px; text-align: start;"><span class="nodeLabel"><p>String</p></span></div></foreignObject></g><g class="label attribute-name" transform="translate(-29.28125, -12)" style=""><foreignObject width="41.09375" height="24"><div xmlns="http://www.w3.org/1999/xhtml" style="display: table-cell; white-space: nowrap; line-height: 1.5; max-width: 137px; text-align: start;"><span class="nodeLabel"><p>senha</p></span></div></foreignObject></g><g class="label attribute-keys" transform="translate(100.796875, -12)" style=""><foreignObject width="0" height="0"><div xmlns="http://www.w3.org/1999/xhtml" style="display: table-cell; white-space: nowrap; line-height: 1.5; max-width: 100px; text-align: start;"><span class="nodeLabel"></span></div></foreignObject></g><g class="label attribute-comment" transform="translate(100.796875, -12)" style=""><foreignObject width="0" height="0"><div xmlns="http://www.w3.org/1999/xhtml" style="display: table-cell; white-space: nowrap; line-height: 1.5; max-width: 100px; text-align: start;"><span class="nodeLabel"></span></div></foreignObject></g><g class="label attribute-type" transform="translate(-122.765625, 30.75)" style=""><foreignObject width="41.59375" height="24"><div xmlns="http://www.w3.org/1999/xhtml" style="display: table-cell; white-space: nowrap; line-height: 1.5; max-width: 139px; text-align: start;"><span class="nodeLabel"><p>String</p></span></div></foreignObject></g><g class="label attribute-name" transform="translate(-29.28125, 30.75)" style=""><foreignObject width="28.25" height="24"><div xmlns="http://www.w3.org/1999/xhtml" style="display: table-cell; white-space: nowrap; line-height: 1.5; max-width: 126px; text-align: start;"><span class="nodeLabel"><p>role</p></span></div></foreignObject></g><g class="label attribute-keys" transform="translate(100.796875, 30.75)" style=""><foreignObject width="0" height="0"><div xmlns="http://www.w3.org/1999/xhtml" style="display: table-cell; white-space: nowrap; line-height: 1.5; max-width: 100px; text-align: start;"><span class="nodeLabel"></span></div></foreignObject></g><g class="label attribute-comment" transform="translate(100.796875, 30.75)" style=""><foreignObject width="0" height="0"><div xmlns="http://www.w3.org/1999/xhtml" style="display: table-cell; white-space: nowrap; line-height: 1.5; max-width: 100px; text-align: start;"><span class="nodeLabel"></span></div></foreignObject></g><g class="label attribute-type" transform="translate(-122.765625, 73.5)" style=""><foreignObject width="56.828125" height="24"><div xmlns="http://www.w3.org/1999/xhtml" style="display: table-cell; white-space: nowrap; line-height: 1.5; max-width: 155px; text-align: start;"><span class="nodeLabel"><p>Boolean</p></span></div></foreignObject></g><g class="label attribute-name" transform="translate(-29.28125, 73.5)" style=""><foreignObject width="35.734375" height="24"><div xmlns="http://www.w3.org/1999/xhtml" style="display: table-cell; white-space: nowrap; line-height: 1.5; max-width: 132px; text-align: start;"><span class="nodeLabel"><p>ativo</p></span></div></foreignObject></g><g class="label attribute-keys" transform="translate(100.796875, 73.5)" style=""><foreignObject width="0" height="0"><div xmlns="http://www.w3.org/1999/xhtml" style="display: table-cell; white-space: nowrap; line-height: 1.5; max-width: 100px; text-align: start;"><span class="nodeLabel"></span></div></foreignObject></g><g class="label attribute-comment" transform="translate(100.796875, 73.5)" style=""><foreignObject width="0" height="0"><div xmlns="http://www.w3.org/1999/xhtml" style="display: table-cell; white-space: nowrap; line-height: 1.5; max-width: 100px; text-align: start;"><span class="nodeLabel"></span></div></foreignObject></g><g class="label attribute-type" transform="translate(-122.765625, 116.25)" style=""><foreignObject width="68.484375" height="24"><div xmlns="http://www.w3.org/1999/xhtml" style="display: table-cell; white-space: nowrap; line-height: 1.5; max-width: 164px; text-align: start;"><span class="nodeLabel"><p>DateTime</p></span></div></foreignObject></g><g class="label attribute-name" transform="translate(-29.28125, 116.25)" style=""><foreignObject width="75.015625" height="24"><div xmlns="http://www.w3.org/1999/xhtml" style="display: table-cell; white-space: nowrap; line-height: 1.5; max-width: 168px; text-align: start;"><span class="nodeLabel"><p>criado_em</p></span></div></foreignObject></g><g class="label attribute-keys" transform="translate(100.796875, 116.25)" style=""><foreignObject width="0" height="0"><div xmlns="http://www.w3.org/1999/xhtml" style="display: table-cell; white-space: nowrap; line-height: 1.5; max-width: 100px; text-align: start;"><span class="nodeLabel"></span></div></foreignObject></g><g class="label attribute-comment" transform="translate(100.796875, 116.25)" style=""><foreignObject width="0" height="0"><div xmlns="http://www.w3.org/1999/xhtml" style="display: table-cell; white-space: nowrap; line-height: 1.5; max-width: 100px; text-align: start;"><span class="nodeLabel"></span></div></foreignObject></g><g class="label attribute-type" transform="translate(-122.765625, 159)" style=""><foreignObject width="68.484375" height="24"><div xmlns="http://www.w3.org/1999/xhtml" style="display: table-cell; white-space: nowrap; line-height: 1.5; max-width: 164px; text-align: start;"><span class="nodeLabel"><p>DateTime</p></span></div></foreignObject></g><g class="label attribute-name" transform="translate(-29.28125, 159)" style=""><foreignObject width="105.078125" height="24"><div xmlns="http://www.w3.org/1999/xhtml" style="display: table-cell; white-space: nowrap; line-height: 1.5; max-width: 194px; text-align: start;"><span class="nodeLabel"><p>atualizado_em</p></span></div></foreignObject></g><g class="label attribute-keys" transform="translate(100.796875, 159)" style=""><foreignObject width="0" height="0"><div xmlns="http://www.w3.org/1999/xhtml" style="display: table-cell; white-space: nowrap; line-height: 1.5; max-width: 100px; text-align: start;"><span class="nodeLabel"></span></div></foreignObject></g><g class="label attribute-comment" transform="translate(100.796875, 159)" style=""><foreignObject width="0" height="0"><div xmlns="http://www.w3.org/1999/xhtml" style="display: table-cell; white-space: nowrap; line-height: 1.5; max-width: 100px; text-align: start;"><span class="nodeLabel"></span></div></foreignObject></g><g class="divider"><path d="M-135.265625 -149.62505 L-135.265625 -149.62495 L135.265625 -149.62495 L135.265625 -149.62505" stroke="none" stroke-width="0" fill="#cde498" fill-rule="evenodd"/><path d="M-135.265625 -149.62505 C-135.265625 -149.62501429728133, -135.265625 -149.62497859456263, -135.265625 -149.62495 M-135.265625 -149.62505 C-135.265625 -149.62502108230146, -135.265625 -149.62499216460296, -135.265625 -149.62495 M-135.265625 -149.62495 C-27.87735155036637 -149.62495, 79.51092189926726 -149.62495, 135.265625 -149.62495 M-135.265625 -149.62495 C-77.50385336185595 -149.62495, -19.74208172371189 -149.62495, 135.265625 -149.62495 M135.265625 -149.62495 C135.265625 -149.62498131545462, 135.265625 -149.62501263090923, 135.265625 -149.62505 M135.265625 -149.62495 C135.265625 -149.62497675838014, 135.265625 -149.62500351676027, 135.265625 -149.62505 M135.265625 -149.62505 C40.29450659015377 -149.62505, -54.676611819692454 -149.62505, -135.265625 -149.62505 M135.265625 -149.62505 C67.8883205647448 -149.62505, 0.5110161294896045 -149.62505, -135.265625 -149.62505" stroke="#13540c" stroke-width="1.3" fill="none" stroke-dasharray="0 0"/></g><g class="divider"><path d="M-41.7813 -149.625 L-41.7812 -149.625 L-41.7812 192.375 L-41.7813 192.375" stroke="none" stroke-width="0" fill="#cde498" fill-rule="evenodd"/><path d="M-41.7813 -149.625 C-41.78127983188345 -149.625, -41.781259663766896 -149.625, -41.7812 -149.625 M-41.7813 -149.625 C-41.781276366495 -149.625, -41.78125273299 -149.625, -41.7812 -149.625 M-41.7812 -149.625 C-41.7812 -63.561479016237854, -41.7812 22.502041967524292, -41.7812 192.375 M-41.7812 -149.625 C-41.7812 -70.29819417158623, -41.7812 9.028611656827536, -41.7812 192.375 M-41.7812 192.375 C-41.781235047696704 192.375, -41.7812700953934 192.375, -41.7813 192.375 M-41.7812 192.375 C-41.78122657672614 192.375, -41.78125315345228 192.375, -41.7813 192.375 M-41.7813 192.375 C-41.7813 84.37217024484774, -41.7813 -23.630659510304525, -41.7813 -149.625 M-41.7813 192.375 C-41.7813 70.58270238223434, -41.7813 -51.20959523553131, -41.7813 -149.625" stroke="#13540c" stroke-width="1.3" fill="none" stroke-dasharray="0 0"/></g><g class="divider"><path d="M88.296825 -149.625 L88.296925 -149.625 L88.296925 192.375 L88.296825 192.375" stroke="none" stroke-width="0" fill="#cde498" fill-rule="evenodd"/><path d="M88.296825 -149.625 C88.29684534084326 -149.625, 88.29686568168653 -149.625, 88.296925 -149.625 M88.296825 -149.625 C88.29684585833276 -149.625, 88.29686671666553 -149.625, 88.296925 -149.625 M88.296925 -149.625 C88.296925 -73.95690667556272, 88.296925 1.711186648874559, 88.296925 192.375 M88.296925 -149.625 C88.296925 -39.92637005009988, 88.296925 69.77225989980025, 88.296925 192.375 M88.296925 192.375 C88.29690467504996 192.375, 88.29688435009993 192.375, 88.296825 192.375 M88.296925 192.375 C88.29689317113396 192.375, 88.2968613422679 192.375, 88.296825 192.375 M88.296825 192.375 C88.296825 66.18813188920944, 88.296825 -59.99873622158111, 88.296825 -149.625 M88.296825 192.375 C88.296825 62.49930708630191, 88.296825 -67.37638582739618, 88.296825 -149.625" stroke="#13540c" stroke-width="1.3" fill="none" stroke-dasharray="0 0"/></g><g class="divider"><path d="M-135.265625 -149.62505 L-135.265625 -149.62495 L135.265625 -149.62495 L135.265625 -149.62505" stroke="none" stroke-width="0" fill="#cde498" fill-rule="evenodd"/><path d="M-135.265625 -149.62505 C-135.265625 -149.62501901672795, -135.265625 -149.6249880334559, -135.265625 -149.62495 M-135.265625 -149.62505 C-135.265625 -149.62501427296306, -135.265625 -149.62497854592615, -135.265625 -149.62495 M-135.265625 -149.62495 C-36.84936828424158 -149.62495, 61.566888431516844 -149.62495, 135.265625 -149.62495 M-135.265625 -149.62495 C-76.2004090842245 -149.62495, -17.135193168449007 -149.62495, 135.265625 -149.62495 M135.265625 -149.62495 C135.265625 -149.62498713750273, 135.265625 -149.62502427500547, 135.265625 -149.62505 M135.265625 -149.62495 C135.265625 -149.62497481397855, 135.265625 -149.62499962795712, 135.265625 -149.62505 M135.265625 -149.62505 C56.891017206773114 -149.62505, -21.483590586453772 -149.62505, -135.265625 -149.62505 M135.265625 -149.62505 C51.72487024102519 -149.62505, -31.815884517949627 -149.62505, -135.265625 -149.62505" stroke="#13540c" stroke-width="1.3" fill="none" stroke-dasharray="0 0"/></g></g></g></g></g><defs><filter id="my-svg-drop-shadow" height="130%" width="130%"><feDropShadow dx="4" dy="4" stdDeviation="0" flood-opacity="0.06" flood-color="#000000"/></filter></defs><defs><filter id="my-svg-drop-shadow-small" height="150%" width="150%"><feDropShadow dx="2" dy="2" stdDeviation="0" flood-opacity="0.06" flood-color="#000000"/></filter></defs><linearGradient id="my-svg-gradient" gradientUnits="objectBoundingBox" x1="0%" y1="0%" x2="100%" y2="0%"><stop offset="0%" stop-color="hsl(78.1578947368, 18.4615384615%, 64.5098039216%)" stop-opacity="1"/><stop offset="100%" stop-color="hsl(98.961038961, 60%, 74.9019607843%)" stop-opacity="1"/></linearGradient></svg>